# xmcd
#
# Track frame offsets: 
#        150
#        24295
#        31484
#        43777
#        57599
#        69476
#        81307
#        95049
#        112166
#        141427
#        158916
#        184412
#        200397
#        221471
#        250057
#        278775
#        308147
#        325122
#
# Disc length: 4635 seconds
#
# Revision: 0
# Processed by: cddbd v1.5.2PL0 Copyright (c) Steve Scherf et al.
# Submitted via: ExactAudioCopy v0.99pb4
#
DISCID=0f121912
DTITLE=Van Morrison - The Genuine Philosphers Stone one
DYEAR=1900
DGENRE=Blues
TTITLE0=Stormy Monday
TTITLE1=Don't Start Crying Now
TTITLE2=Here Comes The Night
TTITLE3=All By Myself
TTITLE4=Gloria
TTITLE5=One More Time
TTITLE6=I Gave My Love A Diamond
TTITLE7=Here Comes The Night
TTITLE8=Turn On Your Lovelight
TTITLE9=Mightly Like A Rose
TTITLE10=Bayou Girl
TTITLE11=The Way Young Lovers Do
TTITLE12=Bellerina
TTITLE13=Bayou Girl
TTITLE14=Magic Night
TTITLE15=I Need Your Kind of Loving Part 1
TTITLE16=I Need Your Kind of Loving Part 2
TTITLE17=Mona Mona
EXTD=
EXTT0=
EXTT1=
EXTT2=
EXTT3=
EXTT4=
EXTT5=
EXTT6=
EXTT7=
EXTT8=
EXTT9=
EXTT10=
EXTT11=
EXTT12=
EXTT13=
EXTT14=
EXTT15=
EXTT16=
EXTT17=
PLAYORDER=
